<?xml version="1.0" encoding="utf-8"?>
<!-- Generator: Adobe Illustrator 16.0.0, SVG Export Plug-In . SVG Version: 6.00 Build 0)  -->
<!DOCTYPE svg PUBLIC "-//W3C//DTD SVG 1.1//EN" "http://www.w3.org/Graphics/SVG/1.1/DTD/svg11.dtd">
<svg version="1.1" id="Ebene_1" xmlns="http://www.w3.org/2000/svg" xmlns:xlink="http://www.w3.org/1999/xlink" x="0px" y="0px"
	 width="167.667px" height="175.667px" viewBox="0 0 167.667 175.667" enable-background="new 0 0 167.667 175.667"
	 xml:space="preserve">
<g>
	<g>
		<g enable-background="new    ">
			<g>
				<polygon fill="#FCC54E" points="31.086,83.204 59.278,66.82 59.122,121.925 30.93,138.308 				"/>
			</g>
			<g>
				<polygon fill="#EEB74A" points="5.835,23.292 34.027,6.909 59.228,21.458 31.036,37.842 				"/>
			</g>
			<g>
				<polygon fill="#FCC54E" points="31.036,37.842 59.228,21.458 91.958,95.969 63.766,112.352 				"/>
			</g>
			<g>
				<polygon fill="#C58E3D" points="89.366,71.519 89.081,171.881 63.639,157.192 31.086,83.204 30.93,138.308 5.551,123.655 
					5.835,23.292 31.036,37.842 63.766,112.352 63.924,56.829 				"/>
			</g>
			<g>
				<polygon fill="#E3AC46" points="89.366,71.519 117.558,55.135 117.273,155.498 89.081,171.881 				"/>
			</g>
		</g>
	</g>
	<g enable-background="new    ">
		<defs>
			<path id="SVGID_9_" enable-background="new    " d="M131.497,26.538c8.223,4.778,16.444,9.557,24.667,14.335
				c-0.145-0.084-0.291-0.165-0.44-0.241l-24.668-14.336C131.205,26.373,131.352,26.454,131.497,26.538z"/>
		</defs>
		<use xlink:href="#SVGID_9_"  overflow="visible" fill="#EEB74A"/>
		<clipPath id="SVGID_2_">
			<use xlink:href="#SVGID_9_"  overflow="visible"/>
		</clipPath>
		<g clip-path="url(#SVGID_2_)" enable-background="new    ">
			<path fill="#EEB74A" d="M155.724,40.632l-24.668-14.336c0.109,0.057,0.217,0.115,0.323,0.175l24.668,14.335
				C155.94,40.746,155.832,40.688,155.724,40.632"/>
			<path fill="#EEB74A" d="M156.047,40.806l-24.668-14.335c0.039,0.022,0.079,0.044,0.118,0.067l24.667,14.336
				C156.125,40.851,156.086,40.828,156.047,40.806"/>
		</g>
	</g>
	<g>
		<g enable-background="new    ">
			<defs>
				<path id="SVGID_11_" enable-background="new    " d="M122.724,94.516L98.056,80.18c5.204-3.004,8.859-6.15,10.954-9.447
					l24.668,14.336C131.583,88.364,127.928,91.512,122.724,94.516z"/>
			</defs>
			<use xlink:href="#SVGID_11_"  overflow="visible" fill="#FCC54E"/>
			<clipPath id="SVGID_4_">
				<use xlink:href="#SVGID_11_"  overflow="visible"/>
			</clipPath>
			<g clip-path="url(#SVGID_4_)" enable-background="new    ">
				<path fill="#FCC54E" d="M122.724,94.516L98.056,80.18c3.311-1.911,5.995-3.88,8.049-5.908l24.668,14.335
					C128.719,90.635,126.034,92.604,122.724,94.516"/>
				<path fill="#FCC54E" d="M130.772,88.606l-24.668-14.335c0.436-0.43,0.842-0.862,1.221-1.298l24.668,14.335
					C131.614,87.744,131.208,88.177,130.772,88.606"/>
				<path fill="#FCC54E" d="M131.993,87.309l-24.668-14.335c0.256-0.294,0.499-0.589,0.729-0.886l24.668,14.336
					C132.492,86.72,132.249,87.015,131.993,87.309"/>
				<path fill="#FCC54E" d="M132.722,86.424l-24.668-14.336c0.182-0.234,0.355-0.469,0.521-0.705l24.667,14.336
					C133.077,85.954,132.903,86.189,132.722,86.424"/>
				<path fill="#FCC54E" d="M133.242,85.719l-24.667-14.336c0.143-0.204,0.28-0.408,0.411-0.613l24.668,14.335
					C133.523,85.31,133.386,85.515,133.242,85.719"/>
				<path fill="#FCC54E" d="M133.654,85.104L108.986,70.77c0.008-0.013,0.016-0.024,0.023-0.037l24.668,14.336
					C133.67,85.08,133.662,85.093,133.654,85.104"/>
			</g>
		</g>
		<g enable-background="new    ">
			<defs>
				<path id="SVGID_13_" enable-background="new    " d="M109.322,54.466l24.668,14.335c0.021,0.013,0.042,0.025,0.063,0.038
					c1.832,1.14,2.753,3.283,2.762,6.43c0.009,3.243-1.037,6.507-3.138,9.8L109.01,70.732c2.101-3.292,3.146-6.557,3.138-9.799
					c-0.009-3.147-0.93-5.291-2.762-6.43C109.365,54.49,109.344,54.479,109.322,54.466z"/>
			</defs>
			<use xlink:href="#SVGID_13_"  overflow="visible" fill="#FCC54E"/>
			<clipPath id="SVGID_6_">
				<use xlink:href="#SVGID_13_"  overflow="visible"/>
			</clipPath>
			<g clip-path="url(#SVGID_6_)">
				<path fill="#FCC54E" d="M133.678,85.068L109.01,70.732c0.182-0.285,0.356-0.57,0.522-0.855L134.2,84.213
					C134.034,84.498,133.859,84.783,133.678,85.068"/>
				<path fill="#FCC54E" d="M134.2,84.213l-24.668-14.336c0.156-0.269,0.307-0.536,0.449-0.805l24.667,14.335
					C134.506,83.676,134.356,83.944,134.2,84.213"/>
				<path fill="#FCC54E" d="M134.648,83.407l-24.667-14.335c0.136-0.256,0.266-0.512,0.389-0.768l24.668,14.335
					C134.915,82.896,134.785,83.151,134.648,83.407"/>
				<path fill="#FCC54E" d="M135.038,82.64L110.37,68.305c0.121-0.25,0.235-0.5,0.344-0.75l24.668,14.335
					C135.273,82.14,135.159,82.39,135.038,82.64"/>
				<path fill="#FCC54E" d="M135.382,81.89l-24.668-14.335c0.108-0.251,0.212-0.503,0.309-0.754l24.667,14.336
					C135.594,81.388,135.49,81.639,135.382,81.89"/>
				<path fill="#FCC54E" d="M135.689,81.137l-24.667-14.336c0.101-0.262,0.194-0.523,0.282-0.786l24.668,14.336
					C135.885,80.612,135.791,80.874,135.689,81.137"/>
				<path fill="#FCC54E" d="M135.973,80.351l-24.668-14.336c0.094-0.283,0.181-0.565,0.259-0.849l24.668,14.335
					C136.153,79.784,136.066,80.067,135.973,80.351"/>
				<path fill="#FCC54E" d="M136.231,79.501l-24.668-14.335c0.091-0.327,0.171-0.653,0.241-0.979l24.668,14.336
					C136.402,78.848,136.322,79.175,136.231,79.501"/>
				<path fill="#FCC54E" d="M136.473,78.522l-24.668-14.336c0.09-0.422,0.162-0.844,0.217-1.265l24.668,14.335
					C136.635,77.678,136.562,78.1,136.473,78.522"/>
				<path fill="#FCC54E" d="M136.689,77.257l-24.668-14.335c0.086-0.664,0.128-1.327,0.126-1.988
					c-0.009-3.147-0.93-5.291-2.762-6.43c-0.021-0.014-0.042-0.025-0.063-0.038l24.668,14.335c0.021,0.013,0.042,0.025,0.063,0.038
					c1.832,1.14,2.753,3.283,2.762,6.43C136.817,75.931,136.775,76.593,136.689,77.257"/>
			</g>
		</g>
		<g>
			<polygon fill="#FCC54E" points="116.116,98.33 91.448,83.995 98.056,80.18 122.724,94.516 			"/>
		</g>
	</g>
	<g enable-background="new    ">
		<defs>
			<path id="SVGID_15_" enable-background="new    " d="M133.744,45.297l-24.668-14.335c9.775-5.645,17.099-7.197,21.979-4.666
				l24.668,14.336C150.843,38.1,143.519,39.653,133.744,45.297z"/>
		</defs>
		<use xlink:href="#SVGID_15_"  overflow="visible" fill="#EEB74A"/>
		<clipPath id="SVGID_8_">
			<use xlink:href="#SVGID_15_"  overflow="visible"/>
		</clipPath>
		<g clip-path="url(#SVGID_8_)" enable-background="new    ">
			<path fill="#EEB74A" d="M133.744,45.297l-24.668-14.335c2.541-1.468,4.917-2.658,7.127-3.573l24.668,14.335
				C138.661,42.639,136.285,43.829,133.744,45.297"/>
			<path fill="#EEB74A" d="M140.871,41.724l-24.668-14.335c1.51-0.624,2.941-1.12,4.296-1.486l24.668,14.335
				C143.812,40.604,142.38,41.1,140.871,41.724"/>
			<path fill="#EEB74A" d="M145.167,40.237l-24.668-14.335c0.923-0.25,1.81-0.44,2.661-0.57l24.668,14.335
				C146.977,39.798,146.09,39.987,145.167,40.237"/>
			<path fill="#EEB74A" d="M147.828,39.667L123.16,25.332c0.679-0.104,1.335-0.169,1.969-0.197l24.668,14.335
				C149.163,39.498,148.507,39.563,147.828,39.667"/>
			<path fill="#EEB74A" d="M149.797,39.47l-24.668-14.335c0.545-0.024,1.072-0.021,1.584,0.013l24.668,14.335
				C150.869,39.45,150.342,39.446,149.797,39.47"/>
			<path fill="#EEB74A" d="M151.381,39.482l-24.668-14.335c0.464,0.029,0.913,0.082,1.35,0.157L152.73,39.64
				C152.294,39.564,151.844,39.512,151.381,39.482"/>
			<path fill="#EEB74A" d="M152.73,39.64l-24.668-14.335c0.409,0.071,0.807,0.162,1.191,0.273l24.668,14.335
				C153.536,39.802,153.14,39.711,152.73,39.64"/>
			<path fill="#EEB74A" d="M153.922,39.913l-24.668-14.335c0.372,0.108,0.733,0.235,1.083,0.382l24.668,14.336
				C154.655,40.149,154.294,40.022,153.922,39.913"/>
			<path fill="#EEB74A" d="M155.005,40.296L130.337,25.96c0.245,0.103,0.485,0.215,0.719,0.336l24.668,14.336
				C155.489,40.51,155.25,40.397,155.005,40.296"/>
		</g>
	</g>
	<g>
		<path fill="#E3AC46" d="M155.724,40.632c4.88,2.524,7.334,8.721,7.362,18.581c0.028,10.131-2.599,19.577-7.888,28.349
			c-5.284,8.767-13.372,16.287-24.251,22.568l-14.773,8.529l0.105,37.248L89.17,171.559L88.885,71.196l44.859-25.899
			C143.519,39.653,150.843,38.1,155.724,40.632z M133.678,85.068c2.101-3.293,3.146-6.557,3.138-9.8
			c-0.009-3.146-0.93-5.29-2.762-6.43c-1.833-1.132-5.276-0.238-10.321,2.674l-7.68,4.435l0.063,22.383l6.607-3.814
			C127.928,91.512,131.583,88.364,133.678,85.068"/>
	</g>
	<g>
		<polygon fill="#EEB74A" points="88.885,71.196 64.217,56.86 109.076,30.962 133.744,45.297 		"/>
	</g>
	<g>
		<polygon fill="#C58E3D" points="89.17,171.559 64.502,157.224 64.217,56.86 88.885,71.196 		"/>
	</g>
</g>
</svg>
